<mxfile host="app.diagrams.net" modified="2022-07-13T10:05:38.975Z" agent="5.0 (X11)" etag="4ve4vLXdOpekbrzQol7n" version="20.0.4" type="github">
  <diagram id="FOjV9puZE2EgUe5wVlr6" name="Page-1">
    <mxGraphModel dx="1422" dy="789" grid="1" gridSize="10" guides="1" tooltips="1" connect="1" arrows="1" fold="1" page="1" pageScale="1" pageWidth="827" pageHeight="1169" math="0" shadow="0">
      <root>
        <mxCell id="0" />
        <mxCell id="1" parent="0" />
        <mxCell id="KqabXLX77OQhMmd3BpRU-1" value="" style="rounded=0;whiteSpace=wrap;html=1;" vertex="1" parent="1">
          <mxGeometry x="354" y="525" width="120" height="60" as="geometry" />
        </mxCell>
      </root>
    </mxGraphModel>
  </diagram>
</mxfile>
